<?xml version="1.0" standalone="no"?>
<!DOCTYPE svg PUBLIC "-//W3C//DTD SVG 20010904//EN"
 "http://www.w3.org/TR/2001/REC-SVG-20010904/DTD/svg10.dtd">
<svg version="1.0" xmlns="http://www.w3.org/2000/svg"
 width="175.000000pt" height="175.000000pt" viewBox="0 0 175.000000 175.000000"
 preserveAspectRatio="xMidYMid meet">
<metadata>
Created by potrace 1.14, written by Peter Selinger 2001-2017
</metadata>
<g transform="translate(0.000000,175.000000) scale(0.100000,-0.100000)"
fill="#000000" stroke="none">
<path d="M530 1095 l0 -435 25 0 25 0 0 108 c0 127 21 183 90 246 66 60 122
81 210 80 92 -1 152 -26 220 -95 61 -61 80 -121 80 -245 0 -87 1 -94 20 -94
11 0 21 3 21 8 1 4 2 199 3 435 l1 427 -22 0 -23 0 0 -282 0 -283 -24 36 c-30
44 -80 83 -148 114 -45 21 -65 24 -138 21 -121 -4 -198 -42 -261 -129 l-29
-40 -1 49 c0 27 0 154 0 282 l1 232 -25 0 -25 0 0 -435z"/>
<path d="M0 415 c0 -71 3 -126 6 -122 3 3 6 28 6 56 -1 40 4 57 24 81 31 36
63 38 100 6 24 -20 28 -31 28 -80 0 -31 4 -56 8 -56 4 0 8 24 8 54 0 73 -33
116 -90 116 -28 0 -45 -7 -60 -22 l-21 -22 2 52 c1 29 -1 55 -4 59 -4 3 -7
-51 -7 -122z"/>
<path d="M447 533 c-8 -15 -4 -233 4 -233 5 0 9 54 9 120 0 112 -2 131 -13
113z"/>
<path d="M1070 527 c-1 -9 -1 -53 -1 -97 0 -131 1 -144 8 -137 8 9 8 235 -1
244 -3 3 -6 -1 -6 -10z"/>
<path d="M1740 446 c0 -110 -13 -137 -69 -138 -26 -1 -40 6 -58 26 -26 30 -28
44 -12 79 14 31 51 51 78 44 12 -3 21 -1 21 4 0 20 -67 9 -94 -16 -40 -37 -39
-87 5 -127 37 -35 77 -36 113 -3 25 23 26 29 26 125 0 55 -2 100 -5 100 -3 0
-5 -42 -5 -94z"/>
<path d="M246 439 c-36 -42 -34 -82 4 -121 26 -26 36 -30 66 -25 36 6 69 25
59 35 -2 3 -11 -1 -19 -7 -23 -19 -75 -16 -97 6 -34 33 -34 70 0 103 36 36 61
38 98 5 l28 -24 -40 -2 c-22 -1 -48 -1 -57 0 -10 1 -18 -3 -18 -8 0 -13 118
-13 125 -1 3 5 -7 22 -21 39 -37 44 -91 44 -128 0z"/>
<path d="M539 441 c-28 -28 -29 -33 -29 -120 0 -50 4 -91 8 -91 5 0 9 41 9 91
1 98 11 121 59 133 36 9 81 -18 89 -53 11 -51 -34 -104 -81 -95 -13 2 -24 0
-24 -6 0 -20 59 -10 89 16 25 21 31 34 31 64 0 84 -91 120 -151 61z"/>
<path d="M756 444 c-40 -41 -39 -86 5 -126 32 -30 73 -36 102 -14 26 20 20 28
-10 13 -35 -18 -59 -14 -89 14 -27 25 -30 46 -13 83 22 48 92 55 128 12 15
-18 12 -19 -67 -18 -23 0 -40 -4 -36 -9 7 -12 121 -11 129 1 4 6 -7 24 -24 40
-39 40 -87 41 -125 4z"/>
<path d="M975 445 c-14 -13 -26 -32 -26 -42 -5 -72 -4 -103 3 -103 4 0 8 23 8
51 0 62 12 87 53 104 28 12 29 14 9 15 -13 0 -34 -11 -47 -25z"/>
<path d="M1180 463 c-27 -11 -49 -48 -50 -81 0 -45 46 -92 89 -92 40 0 41 15
1 16 -36 2 -59 19 -71 53 -21 55 37 113 92 92 40 -15 53 -38 53 -97 0 -30 4
-54 8 -54 12 0 10 96 -3 123 -17 38 -74 57 -119 40z"/>
<path d="M1385 445 c-14 -13 -25 -32 -26 -42 0 -10 -2 -37 -4 -60 -1 -24 1
-43 6 -43 5 0 9 24 9 54 0 69 22 100 73 100 58 0 77 -25 77 -101 0 -40 4 -62
10 -58 5 3 8 33 6 68 -3 51 -8 65 -30 84 -37 31 -89 31 -121 -2z"/>
</g>
</svg>
