<svg xmlns="http://www.w3.org/2000/svg" width="54" height="54">
    <path fill-rule="evenodd" fill="#FFF" d="M49.645 48.773H36.58v3.484h4.06v1.742H12.193v-1.742h3.484v-3.484H4.354A4.36 4.36 0 0 1 0 44.418v-2.613h53.999v2.613c0 2.401-1.539 4.355-4.354 4.355zm-32.226 3.484h17.419v-3.484H17.419v3.484zm34.838-8.71H1.741v.871c0 1.44 1.173 2.892 2.613 2.892h45.291c2.205 0 2.612-1.452 2.612-2.892v-.871zm0-31.355c0-1.44-.407-2.613-2.612-2.613V7.837c2.815 0 4.354 1.954 4.354 4.355V40.63h-1.742V12.192zM36.58 22.644c-6.243 0-11.322-5.08-11.322-11.323C25.258 5.78 30.337 0 36.58 0c6.243 0 11.323 5.78 11.323 11.321 0 6.243-5.08 11.323-11.323 11.323zm0-20.904c-5.282 0-9.581 4.64-9.581 9.581 0 5.283 4.299 9.581 9.581 9.581 5.283 0 9.581-4.298 9.581-9.581 0-4.941-4.298-9.581-9.581-9.581zm3.622 5.797c-.718-.784-1.638-1.216-2.589-1.216-.793 0-2.859 1.097-3.508 2.809h4.294c.376 0 1.391.199 1.391.589 0 .39-1.015.706-1.391.706h-4.665a6.1 6.1 0 0 0-.011 1.501h4.676c.376 0 1.391.316 1.391.706 0 .588-1.015.706-1.391.706H34.68c.024 1.643 1.86 2.78 2.933 2.78.951 0 1.871-.432 2.589-1.216a.661.661 0 0 1 .961-.025.725.725 0 0 1 .024.998c-.977 1.067-2.246 1.655-3.574 1.655-2.295 0-4.252-1.751-4.984-4.192h-1.795c-.376 0-.68-.118-.68-.706 0-.39.304-.706.68-.706h1.521a7.468 7.468 0 0 1 .01-1.501h-1.531a.693.693 0 0 1-.68-.706c0-.389.304-.589.68-.589h1.822c.752-2.511 2.69-4.221 4.957-4.221 1.328 0 2.597.588 3.575 1.655a.727.727 0 0 1-.025.999.662.662 0 0 1-.961-.026zM14.806 33.633a3.46 3.46 0 0 1-2.613 1.204 3.487 3.487 0 0 1-3.484-3.483 3.488 3.488 0 0 1 3.484-3.485c1.046 0 1.974.472 2.613 1.861.639-1.389 1.567-1.861 2.613-1.861a3.488 3.488 0 0 1 3.484 3.485 3.487 3.487 0 0 1-3.484 3.483 3.46 3.46 0 0 1-2.613-1.204zm-2.613-4.022c-.961 0-1.742.782-1.742 1.743 0 .96.781 2.596 1.742 2.596s1.742-1.636 1.742-2.596c0-.961-.781-1.743-1.742-1.743zm6.968 1.743c0-.961-.782-1.743-1.742-1.743-.961 0-1.742.782-1.742 1.743 0 .96.781 2.596 1.742 2.596.96 0 1.742-1.636 1.742-2.596zM6.967 18.289v.871h19.161v1.742H6.967v1.742h24.387v1.742H6.967v11.322c0 .481.39.871.871.871h27.871c.481 0 .871-.39.871-.871V24.386h1.742v11.322a2.616 2.616 0 0 1-2.613 2.613H7.838a2.616 2.616 0 0 1-2.613-2.613V18.289a2.617 2.617 0 0 1 2.613-2.613h16.548v1.741H7.838a.872.872 0 0 0-.871.872zm-5.226-6.097V40.63H0V12.192a4.36 4.36 0 0 1 4.354-4.355h19.162v1.742H4.354a2.617 2.617 0 0 0-2.613 2.613z"/>
</svg>
